<svg width="24" height="18" viewBox="0 0 24 18" fill="#ffffff" xmlns="http://www.w3.org/2000/svg">
<path d="M23.6935 0.957887C23.7906 1.0548 23.8677 1.16994 23.9203 1.29669C23.9729 1.42345 24 1.55934 24 1.69657C24 1.83381 23.9729 1.96969 23.9203 2.09645C23.8677 2.22321 23.7906 2.33834 23.6935 2.43526L9.08672 17.042C8.98981 17.1392 8.87467 17.2163 8.74792 17.2689C8.62116 17.3215 8.48527 17.3485 8.34804 17.3485C8.2108 17.3485 8.07491 17.3215 7.94816 17.2689C7.8214 17.2163 7.70627 17.1392 7.60935 17.042L0.305973 9.73864C0.110062 9.54273 0 9.27701 0 8.99995C0 8.72289 0.110062 8.45718 0.305973 8.26127C0.501884 8.06536 0.767597 7.95529 1.04466 7.95529C1.32172 7.95529 1.58743 8.06536 1.78334 8.26127L8.34804 14.828L22.2161 0.957887C22.313 0.860725 22.4282 0.783637 22.5549 0.731039C22.6817 0.678442 22.8176 0.651367 22.9548 0.651367C23.092 0.651367 23.2279 0.678442 23.3547 0.731039C23.4814 0.783637 23.5966 0.860725 23.6935 0.957887Z" fill="white"/>
</svg>
