<svg width="18" height="18" viewBox="0 0 18 18" fill="none" xmlns="http://www.w3.org/2000/svg">
    <path fill-rule="evenodd" clip-rule="evenodd"
        d="M1.01745 1.01734C1.19327 0.841524 1.43172 0.742751 1.68036 0.742751C1.929 0.742751 2.16746 0.841524 2.34328 1.01734L8.9724 7.64646L15.6015 1.01734C15.7773 0.841524 16.0158 0.74275 16.2644 0.74275C16.5131 0.742752 16.7515 0.841524 16.9274 1.01734C17.1032 1.19315 17.2019 1.43161 17.2019 1.68025C17.2019 1.92889 17.1032 2.16735 16.9274 2.34316L10.2982 8.97229L16.9274 15.6014C17.1032 15.7772 17.2019 16.0157 17.2019 16.2643C17.2019 16.513 17.1032 16.7514 16.9274 16.9272C16.7515 17.1031 16.5131 17.2018 16.2644 17.2018C16.0158 17.2018 15.7773 17.1031 15.6015 16.9272L8.9724 10.2981L2.34328 16.9272C2.16746 17.1031 1.929 17.2018 1.68036 17.2018C1.43172 17.2018 1.19327 17.1031 1.01745 16.9272C0.841636 16.7514 0.742864 16.513 0.742864 16.2643C0.742864 16.0157 0.841636 15.7772 1.01745 15.6014L7.64658 8.97229L1.01745 2.34316C0.841636 2.16735 0.742864 1.92889 0.742864 1.68025C0.742864 1.43161 0.841636 1.19315 1.01745 1.01734Z"
        fill="#D0D5DD" />
</svg>